<svg xmlns="http://www.w3.org/2000/svg" xmlns:xlink="http://www.w3.org/1999/xlink" width="21" height="16" viewBox="0 0 21 16"><defs><path id="wzusa" d="M907 634.65v6.7c0 .15-.07.3-.19.4l-2.42 2.11a.56.56 0 0 1-.74 0l-2-1.79-2.19 1.8a.55.55 0 0 1-.4.12.54.54 0 0 1-.34-.15l-.23-.22-1.62-1.54-2.15 1.79a.55.55 0 0 1-.36.13h-.05a.48.48 0 0 1-.11-.03l-.04-.01-.05-.02-.03-.02-.02-.01-.04-.03a.3.3 0 0 1-.02-.02l-.02-.02-.05-.04-1.9-1.8-2.1 1.86-.02.01a.27.27 0 0 1-.05.03l-.02.02-.04.02a.69.69 0 0 1-.1.04h-.05l-.05.01h-.05a.54.54 0 0 1-.22-.04c-.02 0-.04-.02-.05-.03a.54.54 0 0 1-.14-.11.69.69 0 0 1-.1-.16l-.02-.05v-.03a.53.53 0 0 1-.02-.12v-10.9c0-.22.13-.41.33-.5.2-.09.43-.05.6.1l2.11 1.87 2.09-1.88c.11-.1.25-.14.4-.14.12 0 .24.05.34.14l.19.16 1.84 1.63 2.02-1.71h.01l.1-.09c.05-.05.13-.09.2-.1l.04-.02H899.42c.13 0 .25.05.34.14l1.91 1.76 1.96-1.75.05-.05h.02a.42.42 0 0 1 .08-.05l.03-.01a.46.46 0 0 1 .12-.04h.23l.02.01.02.01a.26.26 0 0 1 .06.03l.05.02.05.03.04.03.02.02 2.4 2.08c.11.1.18.25.18.41zm-16.9 6.27l2.9-6.28-.58.51a.56.56 0 0 1-.75 0l-1.56-1.38zm7.73-6.34l-.58.48a.56.56 0 0 1-.73 0l-1.78-1.58-3.6 7.84.53-.48c.22-.19.55-.18.76.02l1.75 1.66zm4.59.13l-.38.34a.56.56 0 0 1-.75 0l-1.73-1.6-3.69 8.04.66-.55a.56.56 0 0 1 .75.02l1.58 1.5zm3.47.18l-1.67-1.45-3.76 8.2.85-.7a.56.56 0 0 1 .73 0l1.99 1.78 1.86-1.61z"/></defs><g><g transform="translate(-887 -630)"><use fill="#cdcdcd" xlink:href="#wzusa"/></g></g></svg>