<svg xmlns="http://www.w3.org/2000/svg" xmlns:xlink="http://www.w3.org/1999/xlink" width="30" height="25" viewBox="0 0 30 25"><defs><path id="on0ma" d="M812.39 2085.97a.63.63 0 0 1-.33-.1l-3.32-1.98a.66.66 0 0 1-.22-.9c.18-.3.57-.4.87-.22l3.32 1.99c.3.18.4.58.23.89a.64.64 0 0 1-.55.32zm.55-9.68c.18.3.08.7-.23.88l-3.32 2c-.3.18-.7.08-.87-.23a.66.66 0 0 1 .22-.9l3.32-1.98a.64.64 0 0 1 .88.23zm2.42 17.7a.64.64 0 0 1-.64-.64v-21.7c0-.36.29-.65.64-.65.35 0 .64.3.64.65v21.7c0 .36-.29.65-.64.65zm-3.3-12.44h-3.09a.64.64 0 0 1-.63-.65c0-.36.28-.65.63-.65h3.1c.34 0 .63.3.63.65 0 .36-.29.65-.64.65zm-4.76-.34c.1.34-.09.7-.42.82l-3.44 1.1a.66.66 0 0 1-.2.03h-.44v6.89c0 .36-.28.65-.64.65a.64.64 0 0 1-.64-.65v-6.89h-4.15v3.11c0 .25.09.32.12.35.2.18.64.2.83.19H799.98c.35 0 .64.28.64.64s-.29.65-.64.65h-1.57l-.23.01c-.37 0-1.05-.07-1.54-.52a1.72 1.72 0 0 1-.54-1.32v-3.11h-2.35v6.89c0 .36-.28.65-.63.65a.64.64 0 0 1-.64-.65v-7c-2.89-.4-3.48-1.77-3.48-2.21 0-.32.6-1.72 3.48-2.12v-1.67c0-.7.25-1.33.72-1.8 1.08-1.07 2.97-1.06 3.18-1.06h3.18c2.8 0 3.6 1.98 3.61 3.02v1.4h.08c.06 0 .13 0 .2.03l3.43 1.1a.65.65 0 0 1 .19 1.15c.1.07.18.19.23.32zm-14.82.53v-1.7c-1.22.2-1.81.59-2.08.85.27.25.86.65 2.08.85v0zm3.42-1.63c-.05-.05-.18-.2-.6-.2-.95 0-1.52.32-1.54 1.94v0l.43.01h1.9v-.96l.01-.06c.01-.13 0-.52-.2-.73zm6-1.5v-1.37c-.01-.21-.17-1.75-2.34-1.75h-3.2c-.44 0-1.67.1-2.27.7-.23.22-.34.5-.34.86v1.57l.44-.01zm4.3 2.28l-3.05-.98h-5.92c.16.45.15.88.14 1.02v.93h5.78z"/></defs><g><g transform="translate(-787 -2070)"><use fill="#cdcdcd" xlink:href="#on0ma"/></g></g></svg>