<svg xmlns="http://www.w3.org/2000/svg" xmlns:xlink="http://www.w3.org/1999/xlink" width="28" height="25" viewBox="0 0 28 25"><defs><path id="2z86a" d="M846 641.89h-7.33c-.37 0-.67-.33-.67-.73 0-.4.3-.72.67-.72H846c.38 0 .68.32.68.72 0 .4-.3.73-.68.73zm-.16-2.06a.64.64 0 0 1-.34-.1l-3.5-2.22a.75.75 0 0 1-.25-.99c.2-.34.6-.46.93-.25l3.5 2.22c.33.2.44.64.25.99a.67.67 0 0 1-.59.35zm-.13-2.87a.66.66 0 0 1-.56-.32l-.98-1.56a.75.75 0 0 1 .19-1 .65.65 0 0 1 .94.2l.97 1.55c.2.33.12.78-.19 1a.64.64 0 0 1-.37.13zm16.61 4.93H855c-.37 0-.67-.33-.67-.73 0-.4.3-.72.67-.72h7.32c.38 0 .68.32.68.72 0 .4-.3.73-.68.73zm-7.17-2.06a.67.67 0 0 1-.58-.35.75.75 0 0 1 .24-1l3.51-2.21c.32-.2.74-.1.92.25.2.35.09.79-.23 1l-3.51 2.21c-.11.07-.23.1-.35.1zm.14-2.87a.64.64 0 0 1-.38-.13.75.75 0 0 1-.18-1l.97-1.56c.2-.33.63-.42.94-.2.3.23.39.68.18 1l-.97 1.57a.66.66 0 0 1-.56.32zm-2.01-9.24v20.56c0 .4-.3.72-.68.72h-4.2c-.38 0-.68-.33-.68-.72v-20.56c0-.4.3-.72.67-.72.37 0 .68.32.68.72v5.3l2.86 3.1v-8.4c0-.4.3-.72.67-.72.38 0 .68.32.68.72zm-2.12 19.83l-2.1-2.27v2.27zm.77-4.26l-2.86-3.11v3.04l2.86 3.1zm0-5.1l-2.86-3.1v3.03l2.86 3.1z"/></defs><g><g transform="translate(-836 -625)"><use fill="#cdcdcd" xlink:href="#2z86a"/></g></g></svg>