<svg xmlns="http://www.w3.org/2000/svg" xmlns:xlink="http://www.w3.org/1999/xlink" width="66" height="56" viewBox="0 0 66 56"><defs><path id="sgsna" d="M1471.48 1268.4l1.93 11.18-4.19-2.46-1.94-11.18zm10.88 0l4.2-2.46-1.94 11.18-4.2 2.46zm-16.4.78l1.16 6.7-12.57-7.39-3.49-20.13 12.58 7.4 1.16 6.7-4.19-2.46-.78-4.47-4.19-2.47 2.71 15.66 4.2 2.47-.78-4.48zm42.4-42.18l-1.55 8.95-29.89 17.57-29.89-17.57-1.55-8.95 31.44 18.48zm-8.61 17.12l3.41 2-14.67 8.63-1.55 8.95-10.02 5.9-10.02-5.9-1.55-8.95-14.67-8.63 3.41-2 14.68 8.62.77 4.48 7.38 4.34 7.38-4.34.78-4.48zm-1.16 6.7l4.19-2.46-1.55 8.95-2.1 1.23-.39 2.24 2.1-1.23-1.55 8.94-4.2 2.47 1.56-8.95-4.2 2.47-1.54 8.94-4.2 2.47 3.5-20.13 4.18-2.47-1.55 8.95 4.2-2.47z"/></defs><g><g transform="translate(-1444 -1225)"><use fill="#cdcdcd" xlink:href="#sgsna"/></g></g></svg>