<svg xmlns="http://www.w3.org/2000/svg" xmlns:xlink="http://www.w3.org/1999/xlink" width="103" height="98" viewBox="0 0 103 98"><defs><path id="em6ua" d="M1431.72 1302.9c0 .49-.04.88-.12 1.19-.09.31-.2.55-.37.74-.16.18-.36.3-.6.37a3.02 3.02 0 0 1-1.6 0c-.22-.07-.41-.18-.56-.35a1.62 1.62 0 0 1-.35-.66c-.09-.27-.12-.6-.12-1.01v-.64h1.32v.67c0 .16.01.3.04.4.02.1.06.17.1.23.05.05.1.09.17.11.06.02.14.03.22.03.1 0 .17 0 .24-.03a.32.32 0 0 0 .17-.14.8.8 0 0 0 .1-.3c.02-.13.03-.3.03-.51v-.8c0-.17-.01-.31-.04-.43a.72.72 0 0 0-.13-.27.44.44 0 0 0-.2-.14.8.8 0 0 0-.26-.04h-.43v-1.27l.48-.02a.5.5 0 0 0 .23-.05.4.4 0 0 0 .16-.18c.05-.09.08-.2.1-.35.02-.15.03-.34.03-.57v-.22c0-.22 0-.4-.02-.53a1 1 0 0 0-.07-.32.3.3 0 0 0-.14-.16.57.57 0 0 0-.24-.05c-.19 0-.32.06-.38.2-.07.12-.1.32-.1.58v.68h-1.34v-.65c0-.37.04-.7.1-.96.08-.27.19-.49.34-.66.15-.17.34-.3.57-.39.23-.08.5-.12.83-.12.12 0 .25 0 .38.02a1.4 1.4 0 0 1 .78.33c.12.1.23.23.32.4.09.16.16.37.22.6.05.25.08.54.08.87 0 .36-.01.66-.04.9-.03.25-.07.46-.13.63a.92.92 0 0 1-.55.63c.16.05.29.15.39.28.1.14.18.3.24.5.05.2.1.42.11.67.02.25.04.52.04.8zm2.71-6.5h1.74l1.24 8.8h-1.31l-.18-1.56h-1.24l-.18 1.56h-1.32zm.4 5.99h.94l-.47-4.13zm7.99.6c0 .4-.04.74-.12 1.02-.08.28-.2.51-.35.69-.15.17-.35.3-.58.37-.23.08-.5.12-.82.12h-1.9v-8.79h1.83c.36 0 .65.05.9.15.23.1.42.24.57.42.14.18.25.4.31.67.06.26.1.56.1.88v.32c0 .23-.03.44-.06.64-.04.2-.1.37-.16.52-.07.15-.15.27-.25.37-.1.1-.2.17-.32.21a1.08 1.08 0 0 1 .58.47c.08.12.14.27.2.45.04.17.07.38.07.61zm-1.38-4.47c0-.15 0-.29-.03-.4a.72.72 0 0 0-.09-.26.37.37 0 0 0-.17-.15.68.68 0 0 0-.27-.05h-.52v2.32h.53c.12 0 .23-.03.3-.07.08-.05.13-.1.17-.2a.9.9 0 0 0 .07-.3l.02-.43zm.07 3.68c0-.17 0-.3-.03-.43a.85.85 0 0 0-.1-.3.45.45 0 0 0-.2-.18.76.76 0 0 0-.33-.07h-.49v2.65h.58c.1 0 .18-.02.25-.04a.38.38 0 0 0 .19-.15.75.75 0 0 0 .1-.28c.03-.12.04-.27.04-.46zm3.15-3.66c0-.33.03-.64.08-.92.06-.28.16-.51.3-.71.14-.2.33-.35.57-.46.24-.11.54-.17.91-.17s.68.06.92.17c.24.11.43.27.57.46.14.2.24.44.3.72.05.28.08.58.08.91v4.51c0 .34-.03.64-.09.92-.05.28-.15.52-.3.72-.14.2-.33.35-.57.46a2.2 2.2 0 0 1-.9.16c-.38 0-.68-.05-.92-.16a1.41 1.41 0 0 1-.57-.47c-.14-.2-.24-.44-.3-.72a4.64 4.64 0 0 1-.08-.9zm1.86-.94a.58.58 0 0 0-.3.07.44.44 0 0 0-.16.18.84.84 0 0 0-.08.3l-.02.4v4.5c0 .14 0 .27.02.38.01.12.04.22.07.3.04.08.1.15.17.2.07.04.17.06.3.06a.6.6 0 0 0 .3-.07c.07-.04.13-.1.16-.18a.92.92 0 0 0 .08-.3l.02-.4v-4.5l-.02-.38a1.03 1.03 0 0 0-.07-.3.41.41 0 0 0-.17-.19.59.59 0 0 0-.3-.07zm5.47-1.2h2.58v7.47h.7v2.34h-1.3v-1.01h-2.79v1h-1.3v-2.33h.13c.1 0 .2-.1.27-.27.08-.18.14-.42.2-.7a24.74 24.74 0 0 0 .27-3.15l.01-.87v-2.48zm.08 2.48c0 .61 0 1.18-.02 1.7-.01.51-.04.98-.09 1.4-.04.42-.11.79-.2 1.1-.09.32-.22.58-.38.79h1.88v-6.14h-1.2zm11.3 3.53v.77c0 .32-.04.6-.1.87-.05.26-.15.48-.29.67a1.4 1.4 0 0 1-.57.44c-.24.1-.54.15-.91.15s-.67-.05-.91-.16c-.24-.1-.43-.25-.57-.45-.14-.2-.23-.43-.29-.7a4.56 4.56 0 0 1-.08-.9v-4.56c0-.34.03-.65.08-.92.06-.28.16-.52.3-.71.14-.2.33-.35.57-.46.24-.11.54-.17.9-.17.37 0 .67.06.91.17.24.11.43.27.58.47.14.2.23.42.29.69.06.27.08.56.08.87v.7h-1.3v-.7l-.02-.35a.84.84 0 0 0-.08-.28.43.43 0 0 0-.17-.18.58.58 0 0 0-.29-.07.57.57 0 0 0-.3.07.44.44 0 0 0-.16.18.83.83 0 0 0-.07.29l-.02.4v4.55c0 .14 0 .27.02.4.01.11.03.22.07.3.04.09.1.16.16.2.08.06.18.08.3.08s.21-.02.29-.06c.07-.04.12-.1.16-.18a.83.83 0 0 0 .08-.28c.02-.11.02-.24.02-.38v-.76zm3.98-4.68v7.47h-1.31v-7.47h-1.2v-1.33h3.71v1.33zm6.46 2.23c0 .43-.04.78-.13 1.07-.09.28-.21.5-.37.67-.17.17-.37.3-.61.36-.24.07-.51.1-.82.1h-.41v3.04h-1.31v-8.8h1.78c.29 0 .55.04.78.11.24.08.43.2.6.36.16.17.28.4.36.67.09.27.13.6.13 1.01zm-1.3-1.31a3 3 0 0 0-.02-.43.75.75 0 0 0-.1-.28.39.39 0 0 0-.19-.16.78.78 0 0 0-.3-.05h-.43v3.11h.46c.14 0 .25-.02.33-.08a.49.49 0 0 0 .17-.23c.04-.1.06-.21.07-.35l.01-.44zm3.1-.1c0-.34.03-.65.08-.93.06-.28.16-.51.3-.71.14-.2.33-.35.57-.46.24-.11.54-.17.91-.17s.68.06.92.17c.24.11.43.27.57.46.14.2.23.44.3.72.05.28.07.58.07.91v4.51c0 .34-.02.64-.08.92s-.15.52-.3.72c-.14.2-.33.35-.57.46-.24.1-.54.16-.9.16-.38 0-.68-.05-.92-.16a1.42 1.42 0 0 1-.57-.47c-.14-.2-.24-.44-.3-.72a4.68 4.68 0 0 1-.08-.9zm1.86-.95a.58.58 0 0 0-.3.07.44.44 0 0 0-.16.18.86.86 0 0 0-.08.3l-.02.4v4.5c0 .14 0 .27.02.38.01.12.03.22.07.3.04.08.1.15.17.2.07.04.17.06.3.06a.6.6 0 0 0 .3-.07c.07-.04.12-.1.16-.18a.9.9 0 0 0 .08-.3l.01-.4v-4.5l-.01-.38a1.01 1.01 0 0 0-.07-.3.4.4 0 0 0-.17-.19.59.59 0 0 0-.3-.07zm6.56 7.6l.04-5.33-1.35 5.33h-1.47l.01-8.8h1.3l-.03 5.11 1.2-5.1h1.6v8.79zm5.34-7.47v7.47h-1.3v-7.47h-1.2v-1.33h3.7v1.33zm2.9 7.47v-8.8h3.26v1.33h-1.97v2.33h1.63v1.33h-1.63v2.48h1.97v1.33zm7.81 0v-7.47h-1.25v5.12c0 .41-.03.77-.1 1.07-.06.3-.16.57-.3.77-.14.2-.33.36-.56.47-.23.1-.52.15-.87.15v-1.33c.21 0 .35-.1.42-.29.07-.2.1-.47.1-.84v-6.46l1.25.01h2.62v8.8zm7.02-2.15c0 .4-.05.74-.13 1.01-.09.28-.2.5-.37.67-.16.16-.36.28-.6.36-.22.07-.49.1-.78.1h-1.78v-8.79h1.31v3.03h.42c.3 0 .57.04.82.1.24.08.44.2.6.36.17.17.29.4.38.68.08.29.13.64.13 1.07zm-1.3-1.19l-.01-.44c-.01-.14-.03-.26-.07-.35a.49.49 0 0 0-.18-.23.59.59 0 0 0-.33-.08h-.46v3.1h.44c.12 0 .22-.01.3-.04a.38.38 0 0 0 .19-.16.72.72 0 0 0 .1-.28l.02-.43zm3.38 3.34v-8.8h1.3v3.7h1.25v-3.7h1.3v8.8h-1.3v-3.77h-1.25v3.77zm9.61-2.15c0 .4-.04.74-.13 1.01-.08.28-.2.5-.37.67-.16.16-.35.28-.59.36-.23.07-.5.1-.79.1h-1.77v-8.79h1.3v3.03h.42c.3 0 .58.04.82.1.24.08.44.2.6.36.17.17.3.4.38.68.09.29.13.64.13 1.07zm-1.3-1.19l-.01-.44c0-.14-.03-.26-.07-.35a.5.5 0 0 0-.17-.23.59.59 0 0 0-.34-.08h-.45v3.1h.43c.12 0 .22-.01.3-.04a.39.39 0 0 0 .19-.16.73.73 0 0 0 .1-.28l.02-.43zm2.08 3.34v-8.8h1.3v8.8zm5.98 0l-.85-3.17-.8 3.17h-1.44l1.4-4.56-1.28-4.24h1.43l.74 2.84.73-2.84h1.42l-1.31 4.25 1.41 4.55zm-96.38 9.84l.13 5.95h-1.3v-8.8h1.65l.91 5 .91-5h1.65v8.8h-1.31l.13-5.86-.83 4.76h-1.1zm6 5.95v-8.8h3.27v1.33h-1.96v2.33h1.62v1.33h-1.62v2.48h1.96v1.33zm7.18-7.47v7.47h-1.31v-7.47h-1.2v-1.33h3.71v1.33zm3.33-1.33h1.74l1.24 8.8h-1.3l-.19-1.56h-1.24l-.18 1.56h-1.31zm.4 5.99h.95l-.48-4.13zm6.68 2.8v-7.46h-1.26v5.12c0 .4-.03.76-.09 1.07-.06.3-.16.56-.3.77-.14.2-.33.36-.56.47-.23.1-.52.15-.87.15v-1.33c.2 0 .35-.1.42-.29.07-.2.1-.47.1-.84v-6.46l1.25.01h2.62v8.8zm5.87 0v-7.46h-1.25v5.12c0 .4-.03.76-.1 1.07-.06.3-.16.56-.3.77-.14.2-.33.36-.56.47-.23.1-.52.15-.87.15v-1.33c.21 0 .35-.1.42-.29.07-.2.1-.47.1-.84v-6.46l1.25.01h2.62v8.8zm3.14-6.65c0-.34.03-.64.09-.92.05-.28.15-.51.3-.71.14-.2.33-.36.56-.47.24-.1.55-.16.92-.16s.67.06.91.17c.24.11.43.26.57.46.14.2.24.44.3.72.05.27.08.58.08.91v4.51c0 .34-.03.64-.08.92-.06.28-.16.52-.3.72-.14.2-.33.35-.57.46-.24.1-.54.16-.91.16s-.68-.05-.92-.17a1.39 1.39 0 0 1-.57-.46c-.14-.2-.24-.44-.3-.72a4.65 4.65 0 0 1-.08-.9zm1.87-.94a.57.57 0 0 0-.3.07.42.42 0 0 0-.17.18.83.83 0 0 0-.08.3l-.01.4v4.5l.01.38c.02.12.04.22.08.3.03.08.09.15.16.2a.6.6 0 0 0 .3.06.6.6 0 0 0 .3-.07c.07-.04.13-.1.17-.18a.91.91 0 0 0 .07-.3l.02-.4v-4.5c0-.14 0-.27-.02-.38a1.03 1.03 0 0 0-.07-.3.42.42 0 0 0-.16-.19.58.58 0 0 0-.3-.07zm3.75 7.6v-8.8h1.3v3.7h.38l1.01-3.7h1.39l-1.22 4.3 1.3 4.5h-1.38l-1.07-3.77h-.41v3.77zm5.48-6.66c0-.34.03-.64.09-.92.05-.28.15-.51.3-.71.13-.2.33-.36.56-.47.24-.1.55-.16.92-.16.36 0 .67.06.91.17.24.11.43.26.57.46.14.2.24.44.3.72.05.27.08.58.08.91v4.51c0 .34-.03.64-.08.92-.06.28-.16.52-.3.72-.14.2-.33.35-.57.46-.24.1-.55.16-.91.16-.37 0-.68-.05-.92-.17a1.4 1.4 0 0 1-.57-.46c-.14-.2-.24-.44-.3-.72a4.67 4.67 0 0 1-.08-.9zm1.87-.94a.57.57 0 0 0-.3.07.43.43 0 0 0-.17.18.85.85 0 0 0-.08.3l-.01.4v4.5l.01.38c.01.12.04.22.08.3.03.08.09.15.16.2.08.04.18.06.3.06a.6.6 0 0 0 .3-.07c.07-.04.13-.1.17-.18a.88.88 0 0 0 .07-.3l.02-.4v-4.5c0-.14 0-.27-.02-.38a1 1 0 0 0-.07-.3.41.41 0 0 0-.16-.19.58.58 0 0 0-.3-.07zm3.75 7.6v-8.8h1.3v3.7h1.25v-3.7h1.3v8.8h-1.3v-3.77h-1.25v3.77zm9.47-2.8v.78c0 .32-.03.6-.09.87-.06.26-.15.48-.3.67-.14.19-.33.33-.57.44-.24.1-.54.15-.9.15-.38 0-.68-.05-.92-.16-.24-.1-.42-.25-.56-.45-.14-.2-.24-.43-.3-.7a4.55 4.55 0 0 1-.08-.9v-4.57c0-.33.03-.64.09-.91.05-.28.15-.52.3-.72.13-.2.32-.35.56-.46.24-.1.54-.16.91-.16s.67.06.91.17c.24.11.43.27.57.47.14.2.24.42.3.69.05.27.08.55.08.87v.7h-1.31v-.7c0-.12 0-.24-.02-.35a.83.83 0 0 0-.07-.28.42.42 0 0 0-.17-.18.57.57 0 0 0-.3-.07.55.55 0 0 0-.29.07.41.41 0 0 0-.16.18.82.82 0 0 0-.08.29l-.01.39v4.56l.01.4c.02.11.04.22.08.3.03.09.09.16.16.2.07.05.17.08.3.08.12 0 .2-.02.28-.06.07-.04.13-.1.17-.18a.85.85 0 0 0 .08-.28l.02-.38v-.76zm3.86-4.67v7.47h-1.3v-7.47h-1.2v-1.33h3.7v1.33zm6.35 2.23c0 .43-.04.78-.13 1.06-.09.29-.21.51-.38.68-.16.17-.36.3-.6.36-.24.07-.51.1-.82.1h-.41v3.04h-1.31v-8.8h1.77c.3 0 .56.04.8.11.22.08.42.2.58.36.16.17.29.4.37.66.09.28.13.62.13 1.02zm-1.3-1.31c0-.17 0-.31-.02-.43a.72.72 0 0 0-.1-.28.4.4 0 0 0-.19-.16.81.81 0 0 0-.3-.05h-.43v3.11h.45c.14 0 .26-.03.33-.08a.48.48 0 0 0 .18-.23c.04-.1.06-.21.07-.35l.01-.44zm5.48 3.36l-.79 3.19h-1.27l.75-3.05-1.54-5.75h1.43l.75 3.82.83-3.82h1.27zm2.97 3.19v-8.8h1.3v3.7h.38l1.01-3.7h1.4l-1.23 4.3 1.3 4.5h-1.38l-1.06-3.77h-.42v3.77zm9.45-8.8v7.47h.68v2.34h-1.3v-1.01h-3.24v-8.8h1.31v7.47h1.24v-7.47zm4.9 8.8l.05-5.33-1.35 5.33h-1.47l.01-8.8h1.3l-.03 5.11 1.2-5.1h1.6v8.79zm6 0l.04-5.34-1.34 5.34h-1.48l.01-8.8h1.31l-.05 5.36 1.35-5.36h1.46v8.8zm.9-10.8c0 .21-.02.41-.07.6s-.14.35-.25.49c-.11.14-.26.25-.44.33-.18.08-.4.12-.67.12-.26 0-.49-.04-.67-.12-.19-.08-.33-.2-.44-.34a1.3 1.3 0 0 1-.24-.49 2.38 2.38 0 0 1-.08-.6h.73c0 .12.02.23.03.32.02.1.05.18.1.24.04.07.11.12.2.16.1.04.22.06.37.06s.27-.02.36-.06a.48.48 0 0 0 .2-.15.57.57 0 0 0 .1-.24c.03-.1.04-.2.05-.32z"/><path id="em6ub" d="M1471.48 1268.4l1.93 11.18-4.19-2.46-1.94-11.18zm10.88 0l4.2-2.46-1.94 11.18-4.2 2.46zm-16.4.78l1.16 6.7-12.57-7.39-3.49-20.13 12.58 7.4 1.16 6.7-4.19-2.46-.78-4.47-4.19-2.47 2.71 15.66 4.2 2.47-.78-4.48zm42.4-42.18l-1.55 8.95-29.89 17.57-29.89-17.57-1.55-8.95 31.44 18.48zm-8.61 17.12l3.41 2-14.67 8.63-1.55 8.95-10.02 5.9-10.02-5.9-1.55-8.95-14.67-8.63 3.41-2 14.68 8.62.77 4.48 7.38 4.34 7.38-4.34.78-4.48zm-1.16 6.7l4.19-2.46-1.55 8.95-2.1 1.23-.39 2.24 2.1-1.23-1.55 8.94-4.2 2.47 1.56-8.95-4.2 2.47-1.54 8.94-4.2 2.47 3.5-20.13 4.18-2.47-1.55 8.95 4.2-2.47z"/></defs><g><g transform="translate(-1426 -1225)"><use fill="#cdcdcd" xlink:href="#em6ua"/></g><g transform="translate(-1426 -1225)"><use fill="#cdcdcd" xlink:href="#em6ub"/></g></g></svg>