<svg xmlns="http://www.w3.org/2000/svg" xmlns:xlink="http://www.w3.org/1999/xlink" width="30" height="30" viewBox="0 0 30 30"><defs><path id="2j09a" d="M804.72 1373.23h-4.45a.75.75 0 0 1-.75-.74v-6.75c0-.41.34-.74.75-.74.42 0 .75.33.75.74v6h3.7c.42 0 .76.34.76.75 0 .4-.34.74-.76.74zm10.52 18.77h-25.49a.75.75 0 0 1-.75-.74c0-.4.34-.74.75-.74h25.5c.41 0 .75.33.75.74 0 .4-.34.74-.76.74zm-3.94-26.26v8.54c0 .26-.14.5-.37.63l-7.67 4.47v9.01a.74.74 0 0 1-.77.74h-.06a.74.74 0 0 1-.7-.74v-9l-7.67-4.48a.74.74 0 0 1-.37-.63v-8.54c0-.41.34-.74.76-.74.41 0 .75.33.75.74v8.12l7.3 4.24 7.3-4.24v-8.12c0-.41.33-.74.75-.74.41 0 .75.33.75.74zm-6.14 23.6a.75.75 0 0 1-.35-.07.73.73 0 0 1-.32-1l1.94-3.7c.2-.36.65-.5 1.02-.32.37.19.51.64.32 1l-1.94 3.7c-.14.25-.4.4-.67.4zm2.67.22a.76.76 0 0 1-.6-.29.73.73 0 0 1 .14-1.03l1.68-1.25a.76.76 0 0 1 1.05.14c.25.33.19.79-.14 1.04l-1.68 1.24c-.14.1-.3.15-.45.15zm-8-.21a.76.76 0 0 1-.66-.4l-1.95-3.7a.73.73 0 0 1 .33-1 .76.76 0 0 1 1.01.32l1.94 3.7c.2.36.05.8-.32 1a.75.75 0 0 1-.34.08zm-2.66.21a.76.76 0 0 1-.45-.15l-1.68-1.24a.73.73 0 0 1-.15-1.04.76.76 0 0 1 1.06-.14l1.67 1.25c.34.24.4.7.15 1.03-.15.2-.37.3-.6.3z"/></defs><g><g transform="translate(-787 -1363)"><use fill="#cdcdcd" xlink:href="#2j09a"/></g></g></svg>