<svg xmlns="http://www.w3.org/2000/svg" xmlns:xlink="http://www.w3.org/1999/xlink" width="30" height="29" viewBox="0 0 30 29"><defs><path id="976xa" d="M814.84 651.57h-25.68a.74.74 0 0 1-.76-.72c0-.4.34-.72.76-.72h25.68c.42 0 .76.32.76.72 0 .4-.34.72-.76.72zm-3.97-25.64v8.33c0 .26-.14.5-.37.63l-7.73 4.36v8.8c0 .38-.31.69-.7.72h-.14a.73.73 0 0 1-.7-.72v-8.8l-7.73-4.36a.72.72 0 0 1-.37-.63v-8.33c0-.4.34-.73.76-.73s.76.33.76.73v7.92L802 638l7.35-4.15v-7.92c0-.4.34-.73.76-.73s.76.33.76.73zm-11.11 7.31a.74.74 0 0 1-.76-.72v-6.6c0-.4.34-.72.76-.72h4.48c.42 0 .76.33.76.73v3.64c0 .4-.34.72-.76.72h-3.72v2.23c0 .4-.34.72-.76.72zm.76-4.4h2.96v-2.2h-2.96zm4.16 20.14a.78.78 0 0 1-.35-.08.7.7 0 0 1-.32-.97l1.96-3.61c.19-.36.65-.5 1.02-.31a.7.7 0 0 1 .32.97l-1.96 3.61c-.13.25-.4.4-.67.4zm2.69.21a.77.77 0 0 1-.6-.28.7.7 0 0 1 .14-1.02l1.69-1.22a.78.78 0 0 1 1.06.14.7.7 0 0 1-.15 1.02l-1.69 1.22c-.13.1-.3.14-.45.14zm-8.05-.2a.76.76 0 0 1-.67-.4l-1.96-3.61a.7.7 0 0 1 .32-.97.78.78 0 0 1 1.02.3l1.96 3.62a.7.7 0 0 1-.32.97.78.78 0 0 1-.35.08zm-2.69.2a.78.78 0 0 1-.45-.14l-1.7-1.22a.7.7 0 0 1-.14-1.02.78.78 0 0 1 1.06-.14l1.7 1.22c.32.24.4.7.14 1.02a.77.77 0 0 1-.6.28z"/></defs><g><g transform="translate(-787 -624)"><use fill="#cdcdcd" xlink:href="#976xa"/></g></g></svg>