<svg xmlns="http://www.w3.org/2000/svg" xmlns:xlink="http://www.w3.org/1999/xlink" width="30" height="28" viewBox="0 0 30 28"><defs><path id="cbsga" d="M951.95 651h-18.23a.72.72 0 0 1-.72-.72c0-.39.32-.7.72-.7h17.52l.02-9.18c0-.4.33-.71.72-.71h6.3c.4 0 .72.32.72.71 0 .4-.32.72-.72.72h-5.58l-.03 9.17c0 .39-.32.7-.72.7zm-11.23-2.94a.72.72 0 0 1-.37-.1l-3.74-2.19a.71.71 0 0 1-.25-.98c.2-.34.64-.45.98-.25l3.74 2.2a.71.71 0 0 1-.36 1.32zm-.15-2.84a.72.72 0 0 1-.6-.32l-1.03-1.53a.71.71 0 0 1 .2-1 .72.72 0 0 1 1 .2l1.03 1.54a.71.71 0 0 1-.6 1.11zm8.62-18.5V647c0 .39-.32.7-.72.7h-4.5a.72.72 0 0 1-.71-.7V626.7c0-.4.32-.71.72-.71.4 0 .72.32.72.71v5.23l3.05 3.07v-8.3c0-.4.32-.71.72-.71.4 0 .72.32.72.71zm-2.25 19.56l-2.24-2.24v2.24zm.81-4.21l-3.05-3.06v3l3.05 3.06zm0-5.03l-3.05-3.07v3l3.05 3.07z"/></defs><g><g transform="translate(-931 -624)"><use fill="#cdcdcd" xlink:href="#cbsga"/></g></g></svg>